<svg aria-hidden="true" style="width:0;height:0;position:absolute;overflow:hidden" xmlns="http://www.w3.org/2000/svg"><defs><symbol id="icon-search" viewBox="0 0 32 32"><path d="M14.516 4.489a9.737 9.737 0 0 1 9.557 11.626 9.731 9.731 0 0 1-7.646 7.652 9.739 9.739 0 0 1-9.995-4.137 9.733 9.733 0 0 1-1.641-5.408 9.778 9.778 0 0 1 9.725-9.733zm0-1.822a11.553 11.553 0 0 0-8.171 19.726 11.552 11.552 0 0 0 12.594 2.504 11.559 11.559 0 0 0 7.133-10.676A11.555 11.555 0 0 0 14.517 2.665zM31.111 29.591l-6.551-6.596-1.262 1.253 6.551 6.596a.882.882 0 0 0 .628.263.888.888 0 0 0 .635-1.516z"/></symbol></defs></svg>