<svg aria-hidden="true" style="position: absolute; width: 0; height: 0; overflow: hidden;" version="1.1" xmlns="http://www.w3.org/2000/svg" xmlns:xlink="http://www.w3.org/1999/xlink">
<defs>
<symbol id="icon-search" viewBox="0 0 32 32">
<path d="M14.516 4.489c1.925-0.002 3.808 0.568 5.41 1.636s2.851 2.588 3.589 4.366c0.738 1.778 0.932 3.736 0.558 5.624s-1.301 3.624-2.662 4.986c-1.361 1.362-3.095 2.29-4.984 2.666s-3.846 0.184-5.625-0.552c-1.779-0.736-3.3-1.984-4.37-3.585s-1.641-3.483-1.641-5.408c0.012-2.576 1.040-5.044 2.861-6.866s4.288-2.853 6.864-2.867zM14.516 2.667c-2.285 0-4.52 0.678-6.42 1.947s-3.381 3.074-4.256 5.186c-0.875 2.111-1.103 4.435-0.658 6.676s1.546 4.301 3.163 5.917 3.675 2.717 5.917 3.162c2.242 0.446 4.565 0.217 6.677-0.658s3.916-2.356 5.186-4.256 1.947-4.134 1.947-6.42c0-3.065-1.217-6.004-3.384-8.171s-5.106-3.385-8.171-3.385z"></path>
<path d="M31.111 29.591l-6.551-6.596-1.262 1.253 6.551 6.596c0.082 0.083 0.18 0.149 0.288 0.194s0.223 0.068 0.34 0.069 0.232-0.022 0.341-0.066c0.108-0.044 0.206-0.11 0.289-0.192s0.149-0.18 0.194-0.288c0.045-0.108 0.068-0.223 0.069-0.34s-0.022-0.233-0.066-0.341c-0.044-0.108-0.109-0.206-0.192-0.289z"></path>
</symbol>
</defs>
</svg>
